{"title":"John Wick (2014) 1080P WEB-DL [KNIGHTS]","uid":14071014,"size":3156188981,"categoryP":"video","categoryS":"hd___movies","magnet":"?xt=urn:btih:1b7a7630831a79727da5932193971591110d942d&amp;dn=John+Wick+%282014%29+1080P+WEB-DL+%5BKNIGHTS%5D&amp;tr=udp%3A%2F%2Ftracker.leechers-paradise.org%3A6969&amp;tr=udp%3A%2F%2Fzer0day.ch%3A1337&amp;tr=udp%3A%2F%2Fopen.demonii.com%3A1337&amp;tr=udp%3A%2F%2Ftracker.coppersurfer.tk%3A6969&amp;tr=udp%3A%2F%2Fexodus.desync.com%3A6969","seeders":0,"leechers":1,"uploader":"rapidintection","files":8,"time":1459175634,"description":"John Wick (2014) 1080P WEB-DL [KNIGHTS]\r\n\r\nCover Artwork  \nhttp://i.imgur.com/QcVsmkV.jpg\r\n\r\nScreen Shots  \nhttp://i.imgur.com/itw2vBB.jpg \nhttp://i.imgur.com/ivHjOAh.jpg \nhttp://i.imgur.com/o5hD88Q.jpg \nhttp://i.imgur.com/VJ50soV.jpg \nhttp://i.imgur.com/FjX3K3f.jpg \nhttp://i.imgur.com/qsv0vg2.jpg\r\n\r\nGeneral\r\nFormat                         : Matroska\r\nFormat version                 : Version 4 / Version 2\r\nFile size                      : 2.94 GiB\r\nDuration                       : 1h 41mn\r\nOverall bit rate               : 4 153 Kbps\r\nMovie name                     : John Wick (2014) 1080P WEB-DL [KNIGHTS]\r\n\r\nVideo\r\nID                             : 1\r\nFormat                         : AVC\r\nFormat/Info                    : Advanced Video Codec\r\nFormat profile                 :   \r\nFormat settings, CABAC         : Yes\r\nFormat settings, ReFrames      : 5 frames\r\nCodec ID                       : V_MPEG4/ISO/AVC\r\nDuration                       : 1h 41mn\r\nBit rate                       : 3 687 Kbps\r\nWidth                          : 1 912 pixels\r\nHeight                         : 792 pixels\r\nDisplay aspect ratio           : 2.40:1\r\nFrame rate mode                : Constant\r\nFrame rate                     : 23.976 fps\r\nColor space                    : YUV\r\nChroma subsampling             : 4:2:0\r\nBit depth                      : 8 bits\r\nScan type                      : Progressive\r\nBits/(Pixel*Frame)             : 0.102\r\nStream size                    : 2.61 GiB (89%)\r\nTitle                          : John Wick (2014) 1080P WEB-DL [KNIGHTS]\r\nLanguage                       : English\r\nDefault                        : Yes\r\nForced                         : No\r\nColor range                    : Limited\r\nColor primaries                : BT.709\r\nTransfer characteristics       : BT.709\r\nMatrix coefficients            : BT.709\r\n\r\nAudio\r\nID                             : 2\r\nFormat                         : AC-3\r\nFormat/Info                    : Audio Coding 3\r\nMode extension                 : CM (complete main)\r\nFormat settings, Endianness    : Big\r\nCodec ID                       : A_AC3\r\nDuration                       : 1h 41mn\r\nBit rate mode                  : Constant\r\nBit rate                       : 384 Kbps\r\nChannel(s)                     : 6 channels\r\nChannel positions              : Front: L C R, Side: L R, LFE\r\nSampling rate                  : 48.0 KHz\r\nCompression mode               : Lossy\r\nStream size                    : 278 MiB (9%)\r\nTitle                          : John Wick (2014) 1080P WEB-DL [KNIGHTS]\r\nLanguage                       : English\r\nDefault                        : Yes\r\nForced                         : No\r\n\r\nText\r\nID                             : 3\r\nFormat                         : UTF-8\r\nCodec ID                       : S_TEXT/UTF8\r\nCodec ID/Info                  : UTF-8 Plain Text\r\nLanguage                       : English\r\nDefault                        : Yes\r\nForced                         : No\r\n\r\n***Brought To You By KNIGHTS***","torrent":{"xt":"urn:btih:1b7a7630831a79727da5932193971591110d942d","amp;dn":"John+Wick+%282014%29+1080P+WEB-DL+%5BKNIGHTS%5D","amp;tr":["udp%3A%2F%2Ftracker.leechers-paradise.org%3A6969","udp%3A%2F%2Fzer0day.ch%3A1337","udp%3A%2F%2Fopen.demonii.com%3A1337","udp%3A%2F%2Ftracker.coppersurfer.tk%3A6969","udp%3A%2F%2Fexodus.desync.com%3A6969"],"infoHash":"1b7a7630831a79727da5932193971591110d942d","infoHashBuffer":{"type":"Buffer","data":[27,122,118,48,131,26,121,114,125,165,147,33,147,151,21,145,17,13,148,45]},"announce":[],"urlList":[]}}